<svg width="164" height="38" viewBox="0 0 164 38" fill="none" xmlns="http://www.w3.org/2000/svg">
<path d="M31.2749 7.34283C27.4022 7.34283 21.9311 7.66687 19.1352 10.4613C17.9247 11.6718 17.3202 13.6451 17.4771 15.8787C17.4975 16.1737 17.6937 16.4251 17.9756 16.5181C18.256 16.6097 18.5641 16.5239 18.7559 16.2987C20.3108 14.4692 22.2435 13.0029 24.5046 11.9407C24.6964 11.8491 24.9231 11.8418 25.1295 11.9145C25.3111 11.9799 25.4535 12.1034 25.5276 12.2618C25.6816 12.5874 25.6322 13.016 25.1207 13.2572C25.0917 13.2717 25.0655 13.2907 25.0365 13.3037C25.0263 13.3081 25.0147 13.3067 25.006 13.311C19.4346 15.9296 16.6954 20.4984 15.4514 25.1964C14.5446 19.314 12.6294 15.8511 10.8202 13.7252C9.51095 12.0279 8.22341 11.1284 7.47943 10.6198C7.34136 10.5253 6.92435 10.2405 6.7514 10.0676C6.46803 9.78421 6.46803 9.32354 6.7514 9.04017C7.03477 8.75823 7.49687 8.75823 7.81218 9.07212C7.88922 9.14044 8.01272 9.22763 8.16966 9.33226L8.29902 9.41945C9.35108 10.1402 11.31 11.4786 13.0479 14.3602C13.2034 14.6174 13.5042 14.7554 13.7963 14.7002C14.0928 14.6479 14.3252 14.4198 14.3834 14.1248C14.7627 12.1877 14.5927 9.31332 12.8649 7.58553C10.069 4.79254 4.59789 4.46851 0.726671 4.46851C0.32553 4.46844 0 4.79397 0 5.19504C0 9.06769 0.324032 14.5388 3.11846 17.3348C4.28387 18.5002 6.08147 19.0233 7.86736 19.0233C9.32486 19.0233 10.7533 18.6585 11.8476 18.0264C13.3399 21.1187 14.5316 25.7383 14.5316 32.8051C14.5316 33.2061 14.8571 33.5317 15.2582 33.5317C15.6592 33.5317 15.9848 33.2061 15.9848 32.8051C15.9848 28.8627 16.6605 24.1311 19.173 20.2367C20.18 21.2205 21.9137 21.8439 23.8347 21.902C23.9306 21.9049 24.0251 21.9064 24.1195 21.9064C26.0711 21.9064 27.796 21.2946 28.8815 20.2076C31.6773 17.4117 31.9999 11.9406 31.9999 8.06787C32.0015 7.66687 31.6774 7.34283 31.2749 7.34283Z" fill="#CBEA7B"/>
<path d="M60.672 30H57.024L46.048 13.392V30H42.4V7.728H46.048L57.024 24.304V7.728H60.672V30ZM80.4705 12.368V30H76.8225V27.92C76.2465 28.6453 75.4892 29.2213 74.5505 29.648C73.6332 30.0533 72.6518 30.256 71.6065 30.256C70.2198 30.256 68.9718 29.968 67.8625 29.392C66.7745 28.816 65.9105 27.9627 65.2705 26.832C64.6518 25.7013 64.3425 24.336 64.3425 22.736V12.368H67.9585V22.192C67.9585 23.7707 68.3532 24.9867 69.1425 25.84C69.9318 26.672 71.0092 27.088 72.3745 27.088C73.7398 27.088 74.8172 26.672 75.6065 25.84C76.4172 24.9867 76.8225 23.7707 76.8225 22.192V12.368H80.4705ZM88.5798 15.344V25.104C88.5798 25.7653 88.7291 26.2453 89.0278 26.544C89.3478 26.8213 89.8811 26.96 90.6278 26.96H92.8678V30H89.9878C88.3451 30 87.0864 29.616 86.2118 28.848C85.3371 28.08 84.8998 26.832 84.8998 25.104V15.344H82.8198V12.368H84.8998V7.984H88.5798V12.368H92.8678V15.344H88.5798ZM98.918 14.928C99.4513 14.032 100.155 13.3387 101.03 12.848C101.926 12.336 102.982 12.08 104.198 12.08V15.856H103.27C101.841 15.856 100.753 16.2187 100.006 16.944C99.2807 17.6693 98.918 18.928 98.918 20.72V30H95.27V12.368H98.918V14.928ZM105.375 21.104C105.375 19.3333 105.738 17.7653 106.463 16.4C107.21 15.0347 108.213 13.9787 109.471 13.232C110.751 12.464 112.159 12.08 113.695 12.08C115.082 12.08 116.287 12.3573 117.311 12.912C118.357 13.4453 119.189 14.1173 119.807 14.928V12.368H123.487V30H119.807V27.376C119.189 28.208 118.346 28.9013 117.279 29.456C116.213 30.0107 114.997 30.288 113.631 30.288C112.117 30.288 110.73 29.904 109.471 29.136C108.213 28.3467 107.21 27.2587 106.463 25.872C105.738 24.464 105.375 22.8747 105.375 21.104ZM119.807 21.168C119.807 19.952 119.551 18.896 119.039 18C118.549 17.104 117.898 16.4213 117.087 15.952C116.277 15.4827 115.402 15.248 114.463 15.248C113.525 15.248 112.65 15.4827 111.839 15.952C111.029 16.4 110.367 17.072 109.855 17.968C109.365 18.8427 109.119 19.888 109.119 21.104C109.119 22.32 109.365 23.3867 109.855 24.304C110.367 25.2213 111.029 25.9253 111.839 26.416C112.671 26.8853 113.546 27.12 114.463 27.12C115.402 27.12 116.277 26.8853 117.087 26.416C117.898 25.9467 118.549 25.264 119.039 24.368C119.551 23.4507 119.807 22.384 119.807 21.168ZM128.855 25.04C130.903 23.2693 132.513 21.8187 133.687 20.688C134.881 19.536 135.873 18.3413 136.663 17.104C137.452 15.8667 137.847 14.6293 137.847 13.392C137.847 12.112 137.537 11.1093 136.919 10.384C136.321 9.65867 135.372 9.296 134.071 9.296C132.812 9.296 131.831 9.70133 131.127 10.512C130.444 11.3013 130.081 12.368 130.039 13.712H126.519C126.583 11.28 127.308 9.424 128.695 8.144C130.103 6.84267 131.884 6.192 134.039 6.192C136.364 6.192 138.177 6.832 139.479 8.112C140.801 9.392 141.463 11.0987 141.463 13.232C141.463 14.768 141.068 16.2507 140.279 17.68C139.511 19.088 138.583 20.3573 137.495 21.488C136.428 22.5973 135.063 23.888 133.399 25.36L131.959 26.64H142.103V29.68H126.551V27.024L128.855 25.04ZM143.899 25.136V22.384L154.651 6.96H159.067V21.968H162.043V25.136H159.067V30H155.483V25.136H143.899ZM155.643 10.672L148.091 21.968H155.643V10.672Z" fill="#234338"/>
</svg>
