<svg width="100" height="100" viewBox="0 0 100 100" fill="none" xmlns="http://www.w3.org/2000/svg">
<rect width="100" height="100" rx="50" fill="#1A3129"/>
<path d="M76.7311 30.5999C69.9539 30.5999 60.3794 31.167 55.4866 36.0572C53.3682 38.1756 52.3104 41.6289 52.585 45.5377C52.6206 46.0539 52.964 46.4938 53.4572 46.6566C53.948 46.8168 54.4872 46.6668 54.8228 46.2727C57.5439 43.071 60.9261 40.5051 64.8831 38.6461C65.2188 38.4859 65.6155 38.4731 65.9766 38.6003C66.2945 38.7147 66.5436 38.9309 66.6733 39.2081C66.9428 39.7778 66.8564 40.528 65.9613 40.9501C65.9104 40.9755 65.8646 41.0086 65.8138 41.0315C65.7961 41.0391 65.7757 41.0366 65.7604 41.0442C56.0105 45.6268 51.2169 53.6221 49.04 61.8436C47.4531 51.5495 44.1015 45.4894 40.9354 41.769C38.6442 38.7988 36.391 37.2246 35.089 36.3346C34.8474 36.1693 34.1176 35.6709 33.815 35.3682C33.3191 34.8723 33.3191 34.0661 33.815 33.5702C34.3108 33.0768 35.1195 33.0768 35.6713 33.6261C35.8061 33.7457 36.0223 33.8983 36.2969 34.0814L36.5233 34.234C38.3644 35.4953 41.7925 37.8374 44.8339 42.8802C45.106 43.3303 45.6324 43.572 46.1436 43.4753C46.6623 43.3838 47.0692 42.9845 47.171 42.4683C47.8347 39.0784 47.5372 34.0482 44.5136 31.0246C39.6208 26.1369 30.0463 25.5698 23.2717 25.5698C22.5697 25.5697 22 26.1394 22 26.8413C22 33.6184 22.5671 43.1929 27.4573 48.0858C29.4968 50.1252 32.6426 51.0407 35.7679 51.0407C38.3185 51.0407 40.8183 50.4024 42.7332 49.2962C45.3449 54.7077 47.4302 62.792 47.4302 75.1588C47.4302 75.8607 47.9999 76.4303 48.7018 76.4303C49.4037 76.4303 49.9734 75.8607 49.9734 75.1588C49.9734 68.2596 51.1559 59.9794 55.5527 53.1641C57.315 54.8858 60.3489 55.9768 63.7107 56.0784C63.8786 56.0836 64.0439 56.0861 64.2091 56.0861C67.6244 56.0861 70.6429 55.0155 72.5426 53.1132C77.4353 48.2205 77.9999 38.646 77.9999 31.8687C78.0026 31.167 77.4354 30.5999 76.7311 30.5999Z" fill="#CBEA7B"/>
</svg>
