<svg width="24" height="24" viewBox="0 0 24 24" fill="none" xmlns="http://www.w3.org/2000/svg">
<path d="M1.71484 11.9599C1.71484 13.6374 2.12667 15.2144 2.86998 16.6206L4.6077 14.8829C4.83873 14.6519 5.19029 14.6519 5.42132 14.8829C5.65234 15.1139 5.66239 15.4655 5.42132 15.7065L3.47266 17.6552C3.72377 18.0068 3.97489 18.3482 4.26618 18.6596L18.6702 4.26569C18.3487 3.9744 17.9972 3.71324 17.6557 3.47217L15.687 5.44092C15.4559 5.67195 15.0943 5.6619 14.8632 5.44092C14.6322 5.20989 14.6322 4.85833 14.8632 4.61726L16.611 2.87954C15.2148 2.12619 13.6278 1.71436 11.9503 1.71436C6.35547 1.71436 1.71484 6.35498 1.71484 11.9599ZM14.1501 6.97774L12.774 8.35386C12.543 8.58489 12.1813 8.57485 11.9503 8.35386C11.7294 8.12284 11.7193 7.75119 11.9503 7.53021L13.3365 6.15409C13.5675 5.93311 13.9291 5.92306 14.1501 6.15409C14.3811 6.38512 14.3811 6.74672 14.1501 6.97774ZM11.2472 9.89069L9.86105 11.2668C9.64006 11.4878 9.27846 11.4878 9.04744 11.2668C8.81641 11.0358 8.81641 10.6742 9.04744 10.4432L10.4236 9.06703C10.6546 8.836 11.0162 8.836 11.2472 9.06703C11.4682 9.28802 11.4782 9.66971 11.2472 9.89069ZM8.33427 12.7936L6.9682 14.1697C6.72712 14.4008 6.37556 14.3907 6.14453 14.1697C5.91351 13.9387 5.91351 13.5872 6.14453 13.3561L7.5106 11.9699C7.74163 11.7389 8.10323 11.7489 8.33427 11.9699C8.55525 12.201 8.57534 12.5625 8.33427 12.7936ZM11.9604 22.2054C17.5653 22.2054 22.2059 17.5548 22.2059 11.9599C22.2059 10.2925 21.7941 8.70543 21.0508 7.30922L19.313 9.0369C19.072 9.27797 18.7305 9.26793 18.4994 9.0369C18.2784 8.80588 18.2584 8.45431 18.4994 8.21324L20.4481 6.27462C20.207 5.92306 19.9559 5.58154 19.6646 5.27016L5.2606 19.6641C5.58203 19.9454 5.92355 20.2065 6.26506 20.4476L8.23382 18.4789C8.47489 18.2277 8.82646 18.2479 9.05748 18.4789C9.28851 18.7099 9.29855 19.0514 9.05748 19.2925L7.29966 21.0503C8.70592 21.7836 10.2829 22.2054 11.9604 22.2054ZM17.7762 10.5637L16.4101 11.9498C16.1791 12.1808 15.8175 12.1708 15.5865 11.9498C15.3655 11.7088 15.3555 11.3572 15.5865 11.1262L16.9626 9.75007C17.1936 9.51904 17.5452 9.51904 17.7762 9.75007C18.0173 9.97105 18.0072 10.3327 17.7762 10.5637ZM14.8734 13.4767L13.4972 14.8427C13.2662 15.0838 12.9046 15.0838 12.6736 14.8427C12.4525 14.6217 12.4425 14.2501 12.6736 14.0191L14.0597 12.653C14.2807 12.432 14.6524 12.432 14.8734 12.653C15.1044 12.884 15.1044 13.2356 14.8734 13.4767ZM11.9704 16.3796L10.5843 17.7556C10.3532 17.9767 10.0017 17.9867 9.77065 17.7556C9.53962 17.5246 9.53962 17.163 9.77065 16.932L11.1468 15.5558C11.3778 15.3248 11.7394 15.3449 11.9704 15.5558C12.1914 15.797 12.2015 16.1586 11.9704 16.3796Z" fill="#CBEA7B"/>
</svg>
